<svg version="1.1" xmlns="http://www.w3.org/2000/svg" xmlns:xlink="http://www.w3.org/1999/xlink" width="862" height="819"><defs/><g><g/><g/><g/><g/><g/><g/><g/><g/><g/><g/><g/><g/><g/><g/><g/><g/><g/><g/><g><rect fill="white" stroke="none" x="0" y="0" width="862" height="819"/></g><g><text fill="black" stroke="none" font-family="sans-serif" font-size="13.5pt" font-style="normal" font-weight="normal" text-decoration="normal" x="372.52528206875013" y="20.733142650000005" text-anchor="start" dominant-baseline="alphabetic">Get Halls Data</text></g><g/><g><path fill="none" stroke="black" paint-order="fill stroke markers" d=" M 19.5790163 109.05633033900001 L 19.5790163 819.5120184790001" stroke-miterlimit="10" stroke-width="1.1518412583333333" stroke-dasharray="10.632380846153845,4.607365033333333"/><path fill="none" stroke="black" paint-order="fill stroke markers" d=" M 175.49095515000002 109.05633033900001 L 175.49095515000002 819.5120184790001" stroke-miterlimit="10" stroke-width="1.1518412583333333" stroke-dasharray="10.632380846153845,4.607365033333333"/><path fill="none" stroke="black" paint-order="fill stroke markers" d=" M 413.74469087500006 109.05633033900001 L 413.74469087500006 819.5120184790001" stroke-miterlimit="10" stroke-width="1.1518412583333333" stroke-dasharray="10.632380846153845,4.607365033333333"/><path fill="none" stroke="black" paint-order="fill stroke markers" d=" M 642.3011609750001 109.05633033900001 L 642.3011609750001 819.5120184790001" stroke-miterlimit="10" stroke-width="1.1518412583333333" stroke-dasharray="10.632380846153845,4.607365033333333"/><path fill="none" stroke="black" paint-order="fill stroke markers" d=" M 827.5392717000002 109.05633033900001 L 827.5392717000002 819.5120184790001" stroke-miterlimit="10" stroke-width="1.1518412583333333" stroke-dasharray="10.632380846153845,4.607365033333333"/></g><g><g><path fill="fff" stroke="black" paint-order="fill stroke markers" d=" M 27.457610507 50.588868065999996 A 7.878594207 7.878594207 0 1 1 27.457606567703223 50.580989473106094 M 19.5790163 58.467462272999995 L 19.5790163 75.33041829499999 M 9.627107828 64.549184117 L 29.530924772 64.549184117 M 19.5790163 75.33041829499999 L 9.627107828 91.087606709 M 19.5790163 75.33041829499999 L 29.530924772 91.087606709" stroke-miterlimit="10" stroke-width="2.3497561670000002" stroke-dasharray=""/></g><g><g/><text fill="black" stroke="none" font-family="sans-serif" font-size="9pt" font-style="normal" font-weight="normal" text-decoration="normal" x="6.911047549999999" y="104.909701809" text-anchor="start" dominant-baseline="alphabetic">User</text></g><path fill="none" stroke="none"/><g><path fill="LightGreen" stroke="black" paint-order="fill stroke markers" d=" M 149.81820071650003 71.73667356899999 L 201.16370958350004 71.73667356899999 L 201.16370958350004 109.05633033899998 L 149.81820071650003 109.05633033899998 L 149.81820071650003 71.73667356899999 Z" stroke-miterlimit="10" stroke-width="2.211535216" stroke-dasharray=""/></g><g><g/><text fill="black" stroke="none" font-family="sans-serif" font-size="9pt" font-style="normal" font-weight="normal" text-decoration="normal" x="164.81517390000002" y="95.234235239" text-anchor="start" dominant-baseline="alphabetic">App</text></g><path fill="none" stroke="none"/><g><path fill="LightGreen" stroke="black" paint-order="fill stroke markers" d=" M 349.06607706650004 71.73667356899999 L 478.4233046835001 71.73667356899999 L 478.4233046835001 109.05633033899998 L 349.06607706650004 109.05633033899998 L 349.06607706650004 71.73667356899999 Z" stroke-miterlimit="10" stroke-width="2.211535216" stroke-dasharray=""/></g><g><g/><text fill="black" stroke="none" font-family="sans-serif" font-size="9pt" font-style="normal" font-weight="normal" text-decoration="normal" x="364.06305025000006" y="95.234235239" text-anchor="start" dominant-baseline="alphabetic">Network Controller</text></g><path fill="none" stroke="none"/><g><path fill="LightGreen" stroke="black" paint-order="fill stroke markers" d=" M 609.6323127915001 71.73667356899999 L 674.9700091585001 71.73667356899999 L 674.9700091585001 109.05633033899998 L 609.6323127915001 109.05633033899998 L 609.6323127915001 71.73667356899999 Z" stroke-miterlimit="10" stroke-width="2.211535216" stroke-dasharray=""/></g><g><g/><text fill="black" stroke="none" font-family="sans-serif" font-size="9pt" font-style="normal" font-weight="normal" text-decoration="normal" x="624.6292859750001" y="95.234235239" text-anchor="start" dominant-baseline="alphabetic">Server</text></g><g><path fill="LightBlue" stroke="black" paint-order="fill stroke markers" d=" M 807.3590128540002 81.965023943 L 807.3590128540002 52.938624233 L 847.7195305460002 52.938624233 L 847.7195305460002 81.965023943" stroke-miterlimit="10" stroke-width="2.3497561670000002" stroke-dasharray=""/><path fill="LightBlue" stroke="black" paint-order="fill stroke markers" d=" M 847.7195305460002 51.929611290699995 L 847.7185215414663 52.020835597937136 L 847.7154946287643 52.11205078281957 L 847.7104501105828 52.20324772390483 L 847.7033884913695 52.294417301574796 L 847.6943104772805 52.38555039894768 L 847.6832169761096 52.47663790278969 L 847.6701090971976 52.56767070442634 L 847.6549881513215 52.65863970065333 L 847.6378556505633 52.74953579464685 L 847.6187133081589 52.84034989687325 L 847.5975630383265 52.93107292599797 L 847.5744069560753 53.02169580979371 L 847.5492473769946 53.11220948604761 L 847.522086817021 53.20260490346747 L 847.492927992188 53.292873022586875 L 847.4617738183538 53.38300481666914 L 847.4286274109097 53.47299127260997 L 847.393492084469 53.56282339183875 L 847.356371352535 53.65249219121842 L 847.3172689271498 53.741988703943775 L 847.2761887185237 53.83130398043811 L 847.233134834643 53.92042908924821 L 847.1881115808603 54.00935511793747 L 847.1411234594636 54.09807317397711 L 847.0921751692257 54.186574385635474 L 847.041271604935 54.27484990286514 L 846.9884178569054 54.36289089818795 L 846.9336192104676 54.450688567577735 L 846.8768811454406 54.53823413134072 L 846.8182093355838 54.62551883499349 L 846.7576096480291 54.712533950138415 L 846.6950881426949 54.79927077533649 L 846.6306510716795 54.885720636977474 L 846.5643048786363 54.97187489014724 L 846.4960561981295 55.05772491949229 L 846.4259118549702 55.1432621400812 L 846.3538788635341 55.2284779982632 L 846.2799644270605 55.313363972523504 L 846.2041759369313 55.3979115743354 L 846.1265209719325 55.48211234900918 L 846.0470072974958 55.56595787653753 L 845.9656428649224 55.64943977243758 L 845.8824358105878 55.73254968858931 L 845.797394455128 55.815279314070345 L 845.7105273026078 55.89762037598709 L 845.6218430396701 55.97956464030197 L 845.531350534667 56.06110391265685 L 845.4390588367739 56.14223003919242 L 845.3449771750836 56.22293490736365 L 845.2491149576838 56.30321044675097 L 845.1514817707163 56.38304862986734 L 845.0520873774185 56.462441472960975 L 844.9509417171471 56.54138103681373 L 844.8480549043835 56.619859427535005 L 844.7434372277235 56.69786879735113 L 844.6370991488474 56.775401345390115 L 844.5290513014746 56.85244931846178 L 844.4193044902997 56.92900501183301 L 844.3078696899125 57.00506076999829 L 844.1947580437001 57.08060898744516 L 844.0799808627328 57.15564210941484 L 843.9635496246332 57.23015263265766 L 843.8454759724278 57.304133106183386 L 843.7257717133838 57.37757613200632 L 843.604448817827 57.45047436588508 L 843.4815194179462 57.52282051805702 L 843.3569958065787 57.59460735396722 L 843.2308904359819 57.665827694991904 L 843.1032159165878 57.73647441915632 L 842.973985015742 57.806540461846936 L 842.8432106564268 57.876018816517856 L 842.7109059159692 57.94490253539152 L 842.577084024733 58.01318473015344 L 842.4417583647959 58.08085857264105 L 842.3049424686109 58.147917295526476 L 842.1666500176538 58.214354192993326 L 842.0268948410542 58.28016262140722 L 841.8856909142136 58.34533599998015 L 841.7430523574069 58.40986781142857 L 841.5989934343709 58.473751602625114 L 841.4535285508779 58.5369809852439 L 841.3066722532949 58.59954963639935 L 841.1584392271294 58.6614512992785 L 841.0088442955604 58.72267978376663 L 840.8579024179566 58.78322896706633 L 840.7056286883796 58.843092794309726 L 840.5520383340759 58.90226527916397 L 840.3971467139526 58.9607405044299 L 840.2409693170429 59.01851262263371 L 840.083521760956 59.07557585661172 L 839.9248197903166 59.13192450008809 L 839.7648792751895 59.18755291824543 L 839.6037162094929 59.242455548288284 L 839.4413467093989 59.296626899999396 L 839.2777870117224 59.35006155628873 L 839.1130534722967 59.4027541737352 L 838.9471625643386 59.45469948312096 L 838.7801308768006 59.50589228995837 L 838.6119751127122 59.55632747500939 L 838.4427120875099 59.605999994797564 L 838.2723587273549 59.65490488211229 L 838.1009320674415 59.70303724650561 L 837.9284492502926 59.75039227478117 L 837.7549275240464 59.796965231475625 L 837.5803842407307 59.842751459332106 L 837.4048368545285 59.887746379765986 L 837.2283029200322 59.931945493322715 L 837.050800090488 59.97534438012778 L 836.872346116031 60.01793870032865 L 836.69295884191 60.059724194528805 L 836.5126562067028 60.10069668421365 L 836.3314562405227 60.140852072168364 L 836.1493770632154 60.18018634288761 L 835.9664368825469 60.21869556297708 L 835.7826539923826 60.25637588154688 L 835.5980467708586 60.29322353059654 L 835.4126336785431 60.329234825391865 L 835.2264332565909 60.36440616483338 L 835.039464124889 60.39873403181647 L 834.8517449801948 60.43221499358301 L 834.6632945942662 60.46484570206475 L 834.4741318119849 60.49662289421802 L 834.2842755494713 60.52754339235009 L 834.0937447921938 60.55760410443692 L 833.9025585930689 60.58680202443234 L 833.7107360705576 60.61513423256869 L 833.5182964067519 60.64259789564876 L 833.3252588454582 60.66919026732914 L 833.1316426902715 60.69490868839482 L 832.9374673026462 60.71975058702512 L 832.7427520999589 60.74371347905087 L 832.547516553568 60.766794968202845 L 832.3517801868652 60.788992746351376 L 832.1555625733242 60.81030459373713 L 831.9588833345426 60.83072837919313 L 831.7617621382807 60.850262060357856 L 831.5642186964936 60.868903683879466 L 831.366272763361 60.886651385611145 L 831.1679441333114 60.90350339079751 L 830.9692526390421 60.91945801425208 L 830.7702181495373 60.93451366052581 L 830.57086056808 60.948668824066615 L 830.3711998302622 60.96192208936994 L 830.1712559019912 60.9742721311203 L 829.9710487774935 60.98571771432381 L 829.7705984773144 60.99625769443169 L 829.569925046317 61.005891017454715 L 829.3690485516772 61.014616720068595 L 829.1679890808771 61.02243392971036 L 828.9667667396961 61.02934186466555 L 828.7654016502007 61.03533983414642 L 828.5639139487321 61.04042723836103 L 828.3623237838925 61.044603568573194 L 828.1606513145304 61.04786840715337 L 827.9589167077246 61.05022142762043 L 827.7571401367677 61.05166239467428 L 827.5553417791488 61.052191164219415 L 827.3535418145352 61.05180768337932 L 827.1517604227555 61.05051199050177 L 826.9500177817806 61.04830421515496 L 826.7483340657064 61.045184578114586 L 826.5467294427366 61.04115339134176 L 826.3452240731655 61.036211057951796 L 826.1438381073618 61.03035807217391 L 825.9425916837547 61.023595019301816 L 825.7415049268186 61.01592257563515 L 825.5405979450617 61.0073415084119 L 825.3398908290147 60.997852675731615 L 825.139403649222 60.98745702646968 L 824.9391564542345 60.97615560018234 L 824.7391692686049 60.96394952700282 L 824.5394620908849 60.95084002752826 L 824.340054891626 60.93682841269768 L 824.1409676113819 60.92191608366089 L 823.9422201587149 60.90610453163836 L 823.7438324082044 60.88939533777213 L 823.5458241984602 60.87179017296765 L 823.3482153301384 60.85329079772674 L 823.151025563961 60.8338990619715 L 822.9542746187403 60.813616904859344 L 822.7579821694069 60.79244635458909 L 822.5621678450422 60.770389528198116 L 822.3668512269154 60.747448631350686 L 822.1720518465256 60.72362595811736 L 821.9777891836485 60.69892389074562 L 821.7840826643884 60.6733448994216 L 821.590951659236 60.64689154202314 L 821.3984154811307 60.61956646386392 L 821.2064933835298 60.591372397428984 L 821.0152045584834 60.56231216210149 L 820.8245681347145 60.532388663880745 L 820.6346031757064 60.501604895091646 L 820.445328677797 60.469963934085406 L 820.2567635682782 60.437468944931766 L 820.0689267035037 60.40412317710256 L 819.8818368670037 60.36992996514678 L 819.6955127676058 60.33489272835714 L 819.5099730375647 60.299014970428104 L 819.3252362306988 60.26230027910558 L 819.1413208205348 60.2247523258281 L 818.9582451984604 60.1863748653597 L 818.7760276718855 60.147171735414446 L 818.5946864624107 60.10714685627267 L 818.4142397040057 60.06630423038892 L 818.2347054411963 60.024647941991766 L 818.0561016272588 59.982182156675314 L 817.8784461224262 59.93891112098272 L 817.7017566921006 59.8948391619815 L 817.5260510050779 59.849970686830815 L 817.3513466317803 59.80431018234079 L 817.1776610424996 59.75786221452383 L 817.0050116056501 59.710631428138015 L 816.8334155860315 59.66262254622261 L 816.6628901431028 59.61384036962581 L 816.4934523292661 59.56428977652462 L 816.3251190881616 59.51397572193706 L 816.1579072529734 59.462903237226655 L 815.9918335447453 59.411077429599324 L 815.8269145707098 59.358503481592635 L 815.6631668226272 59.30518665055758 L 815.5006066751355 59.251132268132835 L 815.339250384114 59.19634573971159 L 815.1791140850577 59.140832543901034 L 815.0202137914625 59.084598231974496 L 814.8625653932259 59.027648427316294 L 814.706184655056 58.96998882485944 L 814.5510872148963 58.91162519051614 L 814.3972885823617 58.85256336060118 L 814.2448041371872 58.792809241248335 L 814.0936491276905 58.732368807819746 L 813.9438386692461 58.6712481043084 L 813.7953877427755 58.60945324273369 L 813.6483111932473 58.546990402530305 L 813.5026237281941 58.4838658299302 L 813.3583399162409 58.42008583733803 L 813.2154741856486 58.35565680269991 L 813.0740408228714 58.290585168865604 L 812.9340539711275 58.22487744294428 L 812.7955276289855 58.15854019565377 L 812.6584756489642 58.09158006066352 L 812.5229117361474 58.02400373393123 L 812.3888494468134 57.95581797303326 L 812.2563021870795 57.88702959648888 L 812.125283211561 57.81764548307842 L 811.9958056220464 57.7476725711554 L 811.8678823661868 57.6771178579527 L 811.7415262362011 57.60598839888286 L 811.6167498675972 57.534291306832486 L 811.4935657379076 57.46203375145105 L 811.3719861654429 57.38922295843388 L 811.2520233080589 57.315866208799605 L 811.1336891619416 57.24197083816205 L 811.0169955604067 57.16754423599669 L 810.9019541727172 57.092593844901735 L 810.7885765029162 57.01712715985383 L 810.6768738886759 56.94115172745859 L 810.5668575001648 56.864675145195946 L 810.4585383389301 56.78770506066039 L 810.3519272367977 56.710249170796246 L 810.2470348547887 56.63231522112793 L 810.1438716820542 56.55391100498549 L 810.0424480348253 56.475044362725185 L 809.9427740553823 56.395723180945524 L 809.84485971104 56.315955391698594 L 809.7487147931514 56.23574897169683 L 809.6543489161281 56.15511194151541 L 809.5617715164791 56.07405236479014 L 809.4709918518672 55.992578347411154 L 809.3820190001833 55.91069803671229 L 809.2948618586383 55.82841962065639 L 809.209529142874 55.745751327016485 L 809.1260293860905 55.662701422553056 L 809.0443709381941 55.57927821218735 L 808.9645619649616 55.49549003817086 L 808.8866104472237 55.41134527925118 L 808.8105241800672 55.326852349834084 L 808.7363107720555 55.242019699142105 L 808.6639776444675 55.156855810369606 L 808.5935320305557 55.0713691998345 L 808.5249809748228 54.98556841612661 L 808.4583313323172 54.899462039252796 L 808.3935897679477 54.81305867977899 L 808.3307627558166 54.72636697796915 L 808.2698565785729 54.6393956029212 L 808.2108773267836 54.552153251700176 L 808.1538308983247 54.46464864846849 L 808.0987229977915 54.376890543613555 L 808.0455591359281 54.28888771287272 L 807.9943446290763 54.20064895645573 L 807.9450845986444 54.11218309816469 L 807.897783970594 54.023498984511704 L 807.8524474749488 53.93460548383423 L 807.8090796453205 53.84551148540828 L 807.7676848184558 53.75622589855943 L 807.728267133803 53.66675765177197 L 807.6908305330978 53.57711569179602 L 807.6553787599689 53.48730898275287 L 807.6219153595641 53.397346505238595 L 807.5904436781957 53.307237255425974 L 807.5609668630054 53.216990244164904 L 807.5334878616504 53.126614496081295 L 807.5080094220078 53.03611904867465 L 807.4845340919003 52.94551295141429 L 807.4630642188413 52.85480526483444 L 807.4436019498004 52.764005059628175 L 807.4261492309881 52.67312141574034 L 807.410707807662 52.58216342145959 L 807.3972792239512 52.49114017250955 L 807.3858648227031 52.40006077113928 L 807.3764657453484 52.308934325212995 L 807.3690829317867 52.21776994729937 L 807.3637171202935 52.12657675376021 L 807.3603688474453 52.03536386383888 L 807.3590384480667 51.94414039874837 L 807.3597260551966 51.85291548075916 L 807.3624316000746 51.761698232287024 L 807.3671548121487 51.67049777498081 L 807.3738952191014 51.57932322881024 L 807.3826521468978 51.48818371115395 L 807.3934247198525 51.397088335887766 L 807.406211860717 51.30604621247329 L 807.421012290788 51.215066445047 L 807.4378245300347 51.12415813150982 L 807.4566468972472 51.03333036261736 L 807.4774775102046 50.942592221070804 L 807.5003142858628 50.8519527806087 L 807.5251549405634 50.76142110509956 L 807.5519969902615 50.67100624763549 L 807.5808377507747 50.58071724962689 L 807.6116743380506 50.49056313989833 L 807.6445036684567 50.40055293378564 L 807.6793224590868 50.310695632234435 L 807.7161272280913 50.22100022089998 L 807.7549142950237 50.13147566924867 L 807.7956797812096 50.04213092966106 L 807.8384196101345 49.95297493653666 L 807.8831295078511 49.864016605400494 L 807.9298050034067 49.77526483201153 L 807.9784414292909 49.68672849147315 L 808.0290339219016 49.59841643734563 L 808.0815774220315 49.510337500760784 L 808.1360666753747 49.42250048953888 L 808.1924962330509 49.334914187307845 L 808.2508604521515 49.24758735262491 L 808.3111534963034 49.160528718100764 L 808.3733693362522 49.07374698952632 L 808.4375017504659 48.987250845002116 L 808.5035443257565 48.901048934070516 L 808.5714904579213 48.815149876850796 L 808.641333352404 48.72956226317708 L 808.7130660249733 48.644294651739415 L 808.7866813024215 48.55935556922789 L 808.8621718232824 48.47475350947998 L 808.9395300385669 48.39049693263115 L 809.0187482125176 48.30659426426888 L 809.0998184233835 48.22305389459007 L 809.1827325642108 48.139884177562095 L 809.2674823436547 48.057093430087335 L 809.3540592868077 47.974689931171554 L 809.4424547360478 47.892681921095964 L 809.5326598519036 47.81107760059324 L 809.6246656139388 47.72988513002742 L 809.7184628216538 47.64911262857791 L 809.814042095406 47.56876817342754 L 809.9113938773477 47.488859798954884 L 810.0105084323818 47.40939549593078 L 810.1113758491355 47.33038321071932 L 810.213986040951 47.25183084448318 L 810.3183287468947 47.17374625239353 L 810.424393532783 47.0961372428445 L 810.5321697922257 47.01901157667237 L 810.6416467476865 46.94237696637949 L 810.7528134515613 46.86624107536303 L 810.8656587872724 46.79061151714865 L 810.98017147038 46.715495854629125 L 811.0963400497114 46.64090159930813 L 811.2141529085055 46.566836210549035 L 811.3335982655744 46.49330709482899 L 811.4546641764822 46.42032160499829 L 811.5773385347385 46.34788703954511 L 811.7016090730096 46.27601064186561 L 811.8274633643456 46.20469959953969 L 811.954888823422 46.13396104361213 L 812.0838727077991 46.06380204787959 L 812.2144021191959 45.99422962818318 L 812.3464640047802 45.925250741706876 L 812.4800451584733 45.85687228628186 L 812.6151322222713 45.78910109969669 L 812.7517116875803 45.721943959013544 L 812.8897698965676 45.65540757989052 L 813.0292930435274 45.5894986159101 L 813.1702671762612 45.524223657913744 L 813.3126781974732 45.45958923334287 L 813.4565118661802 45.395601805586054 L 813.6017537991348 45.33226777333277 L 813.748389472265 45.26959346993344 L 813.8964042221256 45.2075851627662 L 814.045783247365 45.14624905261009 L 814.1965116102051 45.085591273024995 L 814.3485742379352 45.02561788973834 L 814.5019559244193 44.96633490003847 L 814.6566413316166 44.90774823217496 L 814.8126149911153 44.84986374476576 L 814.9698613056793 44.79268722621139 L 815.1283645508083 44.73622439411606 L 815.2881088763098 44.680480894715906 L 815.4490783078844 44.62546230231444 L 815.6112567487231 44.57117411872503 L 815.774627981117 44.517621772720815 L 815.9391756680789 44.46481061949176 L 816.1048833549772 44.412745940109176 L 816.2717344711815 44.361432940997624 L 816.4397123317191 44.31087675341424 L 816.6088001389438 44.261082432935666 L 816.778980984216 44.21205495895245 L 816.9502378495929 44.16379923417112 L 817.1225536095307 44.11632008412397 L 817.2959110325969 44.069622256686415 L 817.4702927831937 44.023710421602296 L 817.6456814232915 43.97858917001686 L 817.8220594141724 43.93426301401766 L 817.9994091181841 43.89073638618336 L 818.1777128005041 43.84801363914047 L 818.3569526309129 43.80609904512809 L 818.5371106855766 43.76499679557071 L 818.71816894884 43.724711000659006 L 818.9001093150276 43.68524568893892 L 819.0829135902545 43.64660480690873 L 819.2665634942454 43.60879221862443 L 819.4510406621629 43.571811705313344 L 819.6363266464441 43.53566696499599 L 819.8224029186448 43.50036161211628 L 820.009250871293 43.46589917718007 L 820.1968518197491 43.43228310640214 L 820.3851870040745 43.39951676136157 L 820.5742375909078 43.36760341866553 L 820.7639846753478 43.33654626962172 L 820.9544092828444 43.306348419919146 L 821.1454923710951 43.27701288931763 L 821.3372148319506 43.248542611345776 L 821.5295574933247 43.220940433007655 L 821.7225011211112 43.19420911449811 L 821.9160264211084 43.1683513289267 L 822.1101140409475 43.14336966205044 L 822.3047445720282 43.1192666120152 L 822.4998985514595 43.0960445891059 L 822.6955564640064 43.073705915505485 L 822.8916987440402 43.05225282506269 L 823.0883057774969 43.03168746306868 L 823.2853579038366 43.01201188604253 L 823.482835418011 42.99322806152553 L 823.6807185724332 42.97533786788449 L 823.8789875789528 42.95834309412386 L 824.0776226108342 42.94224543970685 L 824.2766038047398 42.9270465143855 L 824.4759112627162 42.91274783803967 L 824.6755250541834 42.899350840525074 L 824.8754252179288 42.88685686153031 L 825.0755917641025 42.87526715044285 L 825.2760046762168 42.86458286622416 L 825.4766439131473 42.854805077293754 L 825.6774894111377 42.84593476142237 L 825.8785210858056 42.837972805634216 L 826.0797188341509 42.83092000611822 L 826.2810625365664 42.82477706814847 L 826.4825320588498 42.819544606013636 L 826.6841072542168 42.815223142955574 L 826.8857679653156 42.81181311111699 L 827.0874940262433 42.80931485149822 L 827.289265264562 42.80772861392315 L 827.4910615033158 42.80705455701422 L 827.6928625630492 42.80729274817655 L 827.8946482638241 42.80844316359122 L 828.0963984272389 42.81050568821766 L 828.2980928784452 42.81348011580512 L 828.4997114481662 42.81736614891331 L 828.7012339747125 42.82216339894217 L 828.9026403059997 42.8278713861707 L 829.1039103015625 42.83448953980491 L 829.3050238345689 42.84201719803498 L 829.5059607938334 42.85045360810134 L 829.7067010858274 42.85979792637002 L 829.907224636689 42.87004921841698 L 830.1075113942302 42.88120645912156 L 830.3075413299421 42.893268532768985 L 830.507294440998 42.90623423316194 L 830.706750752253 42.9201022637412 L 830.9058903182424 42.93487123771525 L 831.1046932251755 42.95053967819901 L 831.3031395929273 42.967106018361484 L 831.5012095770264 42.98456860158246 L 831.6988833706394 43.00292568161817 L 831.8961412065515 43.022175422775916 L 832.0929633591437 43.04231590009761 L 832.2893301463648 43.06334509955231 L 832.4852219316996 43.085260918237594 L 832.6806191261328 43.108061164589856 L 832.8755021901079 43.13174355860347 L 833.0698516354809 43.156305732058755 L 833.263648027469 43.181745228758835 L 833.4568719865947 43.20805950477525 L 833.649504190623 43.23524592870233 L 833.8415253764941 43.26330178192032 L 834.0329163422496 43.292224258867286 L 834.223657948952 43.322010467319636 L 834.4137311225999 43.352657428681354 L 834.6031168560343 43.38416207828183 L 834.7917962108395 43.41652126568237 L 834.9797503192374 43.44973175499119 L 835.1669603859738 43.483790225187036 L 835.3534076901979 43.51869327045128 L 835.5390735873348 43.55443740050846 L 835.7239395109494 43.59101904097538 L 835.9079869746035 43.628434533718476 L 836.091197573704 43.666680137219636 L 836.2735529873437 43.70575202695039 L 836.4550349801333 43.745646295754334 L 836.6356254040246 43.78635895423782 L 836.8153062001257 43.82788593116893 L 836.9940594005069 43.870223073884574 L 837.171867129997 43.91336614870578 L 837.3487116079712 43.957310841360986 L 837.5245751501292 44.00205275741757 L 837.6994401702631 44.04758742272121 L 837.8732891820168 44.09391028384331 L 838.046104800634 44.14101670853637 L 838.2178697446967 44.18890198619717 L 838.3885668378539 44.237561328337854 L 838.5581790105382 44.286989869064755 L 838.7266893016739 44.33718266556499 L 838.8940808603722 44.38813469860073 L 839.060336947617 44.43984087301114 L 839.2254409379376 44.492296018221865 L 839.389376321073 44.54549488876209 L 839.5521267036213 44.59943216478911 L 839.71367581068 44.65410245262025 L 839.8740074874728 44.7095002852723 L 840.0331057009658 44.76562012300815 L 840.1909545414703 44.82245635389079 L 840.3475382242336 44.88000329434451 L 840.502841091018 44.938255189723215 L 840.6568476116663 44.9972062148859 L 840.8095423856547 45.05685047477918 L 840.960910143633 45.11718200502678 L 841.1109357489516 45.178194772525934 L 841.259604199175 45.23988267605075 L 841.4069006275821 45.30223954686227 L 841.5528103046527 45.36525914932538 L 841.6973186395408 45.42893518153236 L 841.8404111815332 45.49326127593304 L 841.982073621495 45.558230999971585 L 842.1222917933004 45.62383785672974 L 842.2610516752488 45.690075285576505 L 842.398339391468 45.75693666282418 L 842.5341412133004 45.82441530239077 L 842.6684435606772 45.89250445646854 L 842.8012330034755 45.96119731619883 L 842.9324962628618 46.0304870123529 L 843.0622202126194 46.10036661601889 L 843.1903918804614 46.17082913929466 L 843.316998449328 46.24186753598661 L 843.4420272586678 46.313474702314245 L 843.5654658057039 46.38564347762063 L 843.6873017466846 46.45836664508836 L 843.8075228981172 46.5316369324613 L 843.9261172379869 46.60544701277177 L 844.0430729069584 46.67978950507324 L 844.1583782095623 46.754656975178435 L 844.2720216153646 46.830041936402736 L 844.3839917601191 46.90593685031284 L 844.4942774469049 46.9823341274806 L 844.602867647245 47.05922612824197 L 844.7097515022102 47.136605163460935 L 844.8149183235038 47.21446349529847 L 844.9183575945312 47.29279333798627 L 845.0200589714519 47.37158685860534 L 845.1200122842126 47.45083617786927 L 845.2182075375656 47.530533370912195 L 845.314634912067 47.6106704680812 L 845.4092847650602 47.691239455733374 L 845.5021476316383 47.77223227703708 L 845.5932142255924 47.85364083277767 L 845.6824754403387 47.93545698216743 L 845.7699223498305 48.017672543659586 L 845.8555462094492 48.10027929576651 L 845.9393384568807 48.18326897788183 L 846.0212907129696 48.266633291106494 L 846.101394782559 48.35036389907864 L 846.1796426553085 48.434452428807255 L 846.2560265064961 48.51889047150944 L 846.3305386978003 48.60366958345128 L 846.403171778064 48.688781286792235 L 846.4739184840397 48.7742170704329 L 846.542771741116 48.85996839086611 L 846.6097246640242 48.94602667303127 L 846.6747705575281 49.032383311171884 L 846.7379029170924 49.119029669696104 L 846.7991154295338 49.20595708404028 L 846.858401973652 49.29315686153542 L 846.9157566208421 49.38062028227644 L 846.9711736356871 49.46833859999415 L 847.0246474765319 49.55630304292987 L 847.0761727960366 49.644504814712626 L 847.1257444417125 49.73293509523872 L 847.1733574564363 49.82158504155382 L 847.219007078946 49.910445788737135 L 847.2626887443175 49.99950845078802 L 847.3043980844209 50.08876412151449 L 847.3441309283565 50.17820387542383 L 847.3818833028735 50.26781876861521 L 847.4176514327655 50.357599839673966 L 847.4514317412495 50.44753811056783 L 847.4832208503228 50.53762458754464 L 847.5130155811011 50.627850262031785 L 847.5408129541358 50.71820611153699 L 847.5666101897132 50.808683100550624 L 847.5904047081309 50.89927218144916 L 847.612194129957 50.98996429540002 L 847.6319762762674 51.080750373267364 L 847.6497491688642 51.171621336519074 L 847.6655110304728 51.262568098134544 L 847.67926028492 51.3535815635134 L 847.6909955572921 51.444652631384955 L 847.7007156740715 51.535772194718305 L 847.7084196632546 51.62693114163306 L 847.7141067544491 51.71812035631049 L 847.7177763789502 51.80933071990511 L 847.7194281697989 51.90055311145659 M 847.7195305460002 80.9560110007 L 847.7185215414663 81.04723530793714 L 847.7154946287643 81.13845049281959 L 847.7104501105828 81.22964743390484 L 847.7033884913695 81.3208170115748 L 847.6943104772805 81.41195010894769 L 847.6832169761096 81.5030376127897 L 847.6701090971976 81.59407041442634 L 847.6549881513215 81.68503941065335 L 847.6378556505633 81.77593550464687 L 847.6187133081589 81.86674960687326 L 847.5975630383265 81.95747263599797 L 847.5744069560753 82.04809551979372 L 847.5492473769946 82.13860919604761 L 847.522086817021 82.22900461346748 L 847.492927992188 82.31927273258688 L 847.4617738183538 82.40940452666915 L 847.4286274109097 82.49939098260998 L 847.393492084469 82.58922310183875 L 847.356371352535 82.67889190121844 L 847.3172689271498 82.76838841394378 L 847.2761887185237 82.85770369043811 L 847.233134834643 82.94682879924822 L 847.1881115808603 83.03575482793747 L 847.1411234594636 83.12447288397712 L 847.0921751692257 83.21297409563547 L 847.041271604935 83.30124961286515 L 846.9884178569054 83.38929060818795 L 846.9336192104676 83.47708827757774 L 846.8768811454406 83.56463384134072 L 846.8182093355838 83.65191854499349 L 846.7576096480291 83.73893366013841 L 846.6950881426949 83.82567048533649 L 846.6306510716795 83.91212034697747 L 846.5643048786363 83.99827460014725 L 846.4960561981295 84.0841246294923 L 846.4259118549702 84.1696618500812 L 846.3538788635341 84.25487770826321 L 846.2799644270605 84.33976368252351 L 846.2041759369313 84.42431128433542 L 846.1265209719325 84.50851205900919 L 846.0470072974958 84.59235758653755 L 845.9656428649224 84.6758394824376 L 845.8824358105878 84.75894939858931 L 845.797394455128 84.84167902407034 L 845.7105273026078 84.9240200859871 L 845.6218430396701 85.00596435030198 L 845.531350534667 85.08750362265685 L 845.4390588367739 85.16862974919242 L 845.3449771750836 85.24933461736366 L 845.2491149576838 85.32961015675097 L 845.1514817707163 85.40944833986734 L 845.0520873774185 85.48884118296098 L 844.9509417171471 85.56778074681374 L 844.8480549043835 85.64625913753501 L 844.7434372277235 85.72426850735113 L 844.6370991488474 85.80180105539011 L 844.5290513014746 85.87884902846179 L 844.4193044902997 85.95540472183302 L 844.3078696899125 86.0314604799983 L 844.1947580437001 86.10700869744517 L 844.0799808627328 86.18204181941485 L 843.9635496246332 86.25655234265767 L 843.8454759724278 86.33053281618339 L 843.7257717133838 86.40397584200633 L 843.604448817827 86.47687407588508 L 843.4815194179462 86.54922022805702 L 843.3569958065787 86.62100706396723 L 843.2308904359819 86.69222740499191 L 843.1032159165878 86.76287412915633 L 842.973985015742 86.83294017184694 L 842.8432106564268 86.90241852651786 L 842.7109059159692 86.97130224539153 L 842.577084024733 87.03958444015345 L 842.4417583647959 87.10725828264106 L 842.3049424686109 87.17431700552649 L 842.1666500176538 87.24075390299333 L 842.0268948410542 87.30656233140722 L 841.8856909142136 87.37173570998016 L 841.7430523574069 87.43626752142858 L 841.5989934343709 87.50015131262512 L 841.4535285508779 87.56338069524391 L 841.3066722532949 87.62594934639935 L 841.1584392271294 87.6878510092785 L 841.0088442955604 87.74907949376664 L 840.8579024179566 87.80962867706634 L 840.7056286883796 87.86949250430973 L 840.5520383340759 87.92866498916398 L 840.3971467139526 87.9871402144299 L 840.2409693170429 88.04491233263371 L 840.083521760956 88.10197556661173 L 839.9248197903166 88.1583242100881 L 839.7648792751895 88.21395262824544 L 839.6037162094929 88.26885525828828 L 839.4413467093989 88.3230266099994 L 839.2777870117224 88.37646126628874 L 839.1130534722967 88.42915388373521 L 838.9471625643386 88.48109919312097 L 838.7801308768006 88.53229199995837 L 838.6119751127122 88.5827271850094 L 838.4427120875099 88.63239970479756 L 838.2723587273549 88.6813045921123 L 838.1009320674415 88.72943695650561 L 837.9284492502926 88.77679198478118 L 837.7549275240464 88.82336494147563 L 837.5803842407307 88.86915116933211 L 837.4048368545285 88.91414608976599 L 837.2283029200322 88.95834520332272 L 837.050800090488 89.00174409012779 L 836.872346116031 89.04433841032865 L 836.69295884191 89.08612390452882 L 836.5126562067028 89.12709639421365 L 836.3314562405227 89.16725178216836 L 836.1493770632154 89.20658605288762 L 835.9664368825469 89.2450952729771 L 835.7826539923826 89.2827755915469 L 835.5980467708586 89.31962324059656 L 835.4126336785431 89.35563453539187 L 835.2264332565909 89.39080587483339 L 835.039464124889 89.42513374181647 L 834.8517449801948 89.45861470358301 L 834.6632945942662 89.49124541206476 L 834.4741318119849 89.52302260421803 L 834.2842755494713 89.5539431023501 L 834.0937447921938 89.58400381443693 L 833.9025585930689 89.61320173443235 L 833.7107360705576 89.6415339425687 L 833.5182964067519 89.66899760564877 L 833.3252588454582 89.69558997732915 L 833.1316426902715 89.72130839839483 L 832.9374673026462 89.74615029702512 L 832.7427520999589 89.77011318905087 L 832.547516553568 89.79319467820285 L 832.3517801868652 89.81539245635138 L 832.1555625733242 89.83670430373714 L 831.9588833345426 89.85712808919314 L 831.7617621382807 89.87666177035786 L 831.5642186964936 89.89530339387947 L 831.366272763361 89.91305109561115 L 831.1679441333114 89.92990310079752 L 830.9692526390421 89.94585772425208 L 830.7702181495373 89.96091337052582 L 830.57086056808 89.97506853406662 L 830.3711998302622 89.98832179936994 L 830.1712559019912 90.00067184112031 L 829.9710487774935 90.01211742432382 L 829.7705984773144 90.0226574044317 L 829.569925046317 90.03229072745472 L 829.3690485516772 90.04101643006861 L 829.1679890808771 90.04883363971037 L 828.9667667396961 90.05574157466555 L 828.7654016502007 90.06173954414642 L 828.5639139487321 90.06682694836104 L 828.3623237838925 90.0710032785732 L 828.1606513145304 90.07426811715338 L 827.9589167077246 90.07662113762044 L 827.7571401367677 90.07806210467429 L 827.5553417791488 90.07859087421943 L 827.3535418145352 90.07820739337933 L 827.1517604227555 90.07691170050177 L 826.9500177817806 90.07470392515496 L 826.7483340657064 90.0715842881146 L 826.5467294427366 90.06755310134176 L 826.3452240731655 90.0626107679518 L 826.1438381073618 90.05675778217392 L 825.9425916837547 90.04999472930183 L 825.7415049268186 90.04232228563515 L 825.5405979450617 90.0337412184119 L 825.3398908290147 90.02425238573163 L 825.139403649222 90.01385673646968 L 824.9391564542345 90.00255531018234 L 824.7391692686049 89.99034923700283 L 824.5394620908849 89.97723973752827 L 824.340054891626 89.96322812269769 L 824.1409676113819 89.9483157936609 L 823.9422201587149 89.93250424163837 L 823.7438324082044 89.91579504777214 L 823.5458241984602 89.89818988296766 L 823.3482153301384 89.87969050772675 L 823.151025563961 89.8602987719715 L 822.9542746187403 89.84001661485935 L 822.7579821694069 89.8188460645891 L 822.5621678450422 89.79678923819813 L 822.3668512269154 89.77384834135069 L 822.1720518465256 89.75002566811736 L 821.9777891836485 89.72532360074563 L 821.7840826643884 89.69974460942161 L 821.590951659236 89.67329125202315 L 821.3984154811307 89.64596617386393 L 821.2064933835298 89.61777210742899 L 821.0152045584834 89.5887118721015 L 820.8245681347145 89.55878837388076 L 820.6346031757064 89.52800460509165 L 820.445328677797 89.4963636440854 L 820.2567635682782 89.46386865493177 L 820.0689267035037 89.43052288710257 L 819.8818368670037 89.39632967514679 L 819.6955127676058 89.36129243835714 L 819.5099730375647 89.32541468042811 L 819.3252362306988 89.2886999891056 L 819.1413208205348 89.25115203582811 L 818.9582451984604 89.2127745753597 L 818.7760276718855 89.17357144541445 L 818.5946864624107 89.13354656627268 L 818.4142397040057 89.09270394038893 L 818.2347054411963 89.05104765199177 L 818.0561016272588 89.00858186667533 L 817.8784461224262 88.96531083098273 L 817.7017566921006 88.9212388719815 L 817.5260510050779 88.87637039683082 L 817.3513466317803 88.83070989234079 L 817.1776610424996 88.78426192452383 L 817.0050116056501 88.73703113813802 L 816.8334155860315 88.68902225622261 L 816.6628901431028 88.64024007962581 L 816.4934523292661 88.59068948652462 L 816.3251190881616 88.54037543193706 L 816.1579072529734 88.48930294722666 L 815.9918335447453 88.43747713959934 L 815.8269145707098 88.38490319159264 L 815.6631668226272 88.3315863605576 L 815.5006066751355 88.27753197813284 L 815.339250384114 88.2227454497116 L 815.1791140850577 88.16723225390105 L 815.0202137914625 88.1109979419745 L 814.8625653932259 88.0540481373163 L 814.706184655056 87.99638853485945 L 814.5510872148963 87.93802490051614 L 814.3972885823617 87.87896307060119 L 814.2448041371872 87.81920895124834 L 814.0936491276905 87.75876851781976 L 813.9438386692461 87.6976478143084 L 813.7953877427755 87.6358529527337 L 813.6483111932473 87.57339011253032 L 813.5026237281941 87.5102655399302 L 813.3583399162409 87.44648554733804 L 813.2154741856486 87.38205651269992 L 813.0740408228714 87.31698487886561 L 812.9340539711275 87.25127715294428 L 812.7955276289855 87.18493990565378 L 812.6584756489642 87.11797977066352 L 812.5229117361474 87.05040344393123 L 812.3888494468134 86.98221768303327 L 812.2563021870795 86.9134293064889 L 812.125283211561 86.84404519307843 L 811.9958056220464 86.77407228115541 L 811.8678823661868 86.70351756795272 L 811.7415262362011 86.63238810888286 L 811.6167498675972 86.5606910168325 L 811.4935657379076 86.48843346145107 L 811.3719861654429 86.4156226684339 L 811.2520233080589 86.34226591879961 L 811.1336891619416 86.26837054816205 L 811.0169955604067 86.1939439459967 L 810.9019541727172 86.11899355490173 L 810.7885765029162 86.04352686985384 L 810.6768738886759 85.9675514374586 L 810.5668575001648 85.89107485519595 L 810.4585383389301 85.8141047706604 L 810.3519272367977 85.73664888079625 L 810.2470348547887 85.65871493112795 L 810.1438716820542 85.5803107149855 L 810.0424480348253 85.50144407272519 L 809.9427740553823 85.42212289094553 L 809.84485971104 85.3423551016986 L 809.7487147931514 85.26214868169684 L 809.6543489161281 85.18151165151541 L 809.5617715164791 85.10045207479014 L 809.4709918518672 85.01897805741116 L 809.3820190001833 84.9370977467123 L 809.2948618586383 84.8548193306564 L 809.209529142874 84.7721510370165 L 809.1260293860905 84.68910113255306 L 809.0443709381941 84.60567792218735 L 808.9645619649616 84.52188974817086 L 808.8866104472237 84.43774498925119 L 808.8105241800672 84.35325205983409 L 808.7363107720555 84.26841940914211 L 808.6639776444675 84.18325552036961 L 808.5935320305557 84.09776890983451 L 808.5249809748228 84.01196812612662 L 808.4583313323172 83.9258617492528 L 808.3935897679477 83.839458389779 L 808.3307627558166 83.75276668796916 L 808.2698565785729 83.6657953129212 L 808.2108773267836 83.57855296170018 L 808.1538308983247 83.4910483584685 L 808.0987229977915 83.40329025361356 L 808.0455591359281 83.31528742287273 L 807.9943446290763 83.22704866645574 L 807.9450845986444 83.1385828081647 L 807.897783970594 83.04989869451171 L 807.8524474749488 82.96100519383424 L 807.8090796453205 82.87191119540829 L 807.7676848184558 82.78262560855944 L 807.728267133803 82.69315736177198 L 807.6908305330978 82.60351540179602 L 807.6553787599689 82.51370869275287 L 807.6219153595641 82.42374621523861 L 807.5904436781957 82.33363696542598 L 807.5609668630054 82.24338995416491 L 807.5334878616504 82.1530142060813 L 807.5080094220078 82.06251875867466 L 807.4845340919003 81.9719126614143 L 807.4630642188413 81.88120497483445 L 807.4436019498004 81.79040476962818 L 807.4261492309881 81.69952112574035 L 807.410707807662 81.60856313145959 L 807.3972792239512 81.51753988250955 L 807.3858648227031 81.42646048113929 L 807.3764657453484 81.33533403521301 L 807.3690829317867 81.24416965729938 L 807.3637171202935 81.15297646376021 L 807.3603688474453 81.06176357383889 L 807.3590384480667 80.97054010874838" stroke-miterlimit="10" stroke-width="2.3497561670000002" stroke-dasharray=""/></g><g><g/><text fill="black" stroke="none" font-family="sans-serif" font-size="9pt" font-style="normal" font-weight="normal" text-decoration="normal" x="801.8547013875002" y="104.909701809" text-anchor="start" dominant-baseline="alphabetic">Database</text></g></g><g><g><g><rect fill="white" stroke="none" x="68.44116364750002" y="136.70052053900002" width="58.187644155" height="17.96872363"/></g><text fill="black" stroke="none" font-family="sans-serif" font-size="9pt" font-style="normal" font-weight="normal" text-decoration="normal" x="70.51447791250001" y="149.14040612900004" text-anchor="start" dominant-baseline="alphabetic">Open App</text></g><g><path fill="none" stroke="black" paint-order="fill stroke markers" d=" M 19.5790163 154.66924416900002 L 173.18727263333335 154.66924416900002" stroke-miterlimit="10" stroke-width="1.1518412583333333" stroke-dasharray=""/><g transform="translate(175.49095515000002,154.66924416900002) rotate(NaN,0,0) translate(-175.49095515000002,-154.66924416900002)"><path fill="black" stroke="none" paint-order="stroke fill markers" d=" M 163.97254256666668 148.91003787733337 L 175.49095515000002 154.66924416900002 L 163.97254256666668 160.42845046066668 Z"/><g transform="rotate(NaN,0,0)"/></g></g><path fill="LightPink" stroke="black" paint-order="fill stroke markers" d=" M 7.139130709999998 175.40238681900001 L 175.49095515000002 175.40238681900001 L 187.93084074 187.842272409 L 187.93084074 207.19320554900003 L 7.139130709999998 207.19320554900003 L 7.139130709999998 175.40238681900001 M 175.49095515000002 175.40238681900001 L 175.49095515000002 187.842272409 L 187.93084074 187.842272409" stroke-miterlimit="10" stroke-width="1.1518412583333333" stroke-dasharray=""/><g><text fill="black" stroke="none" font-family="sans-serif" font-size="9pt" font-style="normal" font-weight="normal" text-decoration="normal" x="26.490063850000013" y="194.75331995900004" text-anchor="start" dominant-baseline="alphabetic">User opens the application</text></g><g><g><rect fill="white" stroke="none" x="267.8706806225" y="227.92634819900002" width="53.49428478" height="17.96872363"/></g><text fill="black" stroke="none" font-family="sans-serif" font-size="9pt" font-style="normal" font-weight="normal" text-decoration="normal" x="269.9439948875" y="240.36623378900003" text-anchor="start" dominant-baseline="alphabetic">Get Halls</text></g><g><path fill="none" stroke="black" paint-order="fill stroke markers" d=" M 175.49095515000002 245.89507182900002 L 411.4410083583334 245.89507182900002" stroke-miterlimit="10" stroke-width="1.1518412583333333" stroke-dasharray=""/><g transform="translate(413.74469087500006,245.89507182900002) rotate(NaN,0,0) translate(-413.74469087500006,-245.89507182900002)"><path fill="black" stroke="none" paint-order="stroke fill markers" d=" M 402.22627829166674 240.13586553733336 L 413.74469087500006 245.89507182900002 L 402.22627829166674 251.65427812066667 Z"/><g transform="rotate(NaN,0,0)"/></g></g><path fill="LightPink" stroke="black" paint-order="fill stroke markers" d=" M 163.05106956000003 266.628214479 L 413.74469087500006 266.628214479 L 426.1845764650001 279.068100069 L 426.1845764650001 298.419033209 L 163.05106956000003 298.419033209 L 163.05106956000003 266.628214479 M 413.74469087500006 266.628214479 L 413.74469087500006 279.068100069 L 426.1845764650001 279.068100069" stroke-miterlimit="10" stroke-width="1.1518412583333333" stroke-dasharray=""/><g><text fill="black" stroke="none" font-family="sans-serif" font-size="9pt" font-style="normal" font-weight="normal" text-decoration="normal" x="182.40200270000003" y="285.97914761900006" text-anchor="start" dominant-baseline="alphabetic">App Starts a Request to get the halls' data</text></g><g><g><rect fill="white" stroke="none" x="477.5980491600001" y="319.152175859" width="100.84975353" height="17.96872363"/></g><text fill="black" stroke="none" font-family="sans-serif" font-size="9pt" font-style="normal" font-weight="normal" text-decoration="normal" x="479.6713634250001" y="331.592061449" text-anchor="start" dominant-baseline="alphabetic">GET Request:Hall</text></g><g><path fill="none" stroke="black" paint-order="fill stroke markers" d=" M 413.74469087500006 337.120899489 L 639.9974784583335 337.120899489" stroke-miterlimit="10" stroke-width="1.1518412583333333" stroke-dasharray=""/><g transform="translate(642.3011609750001,337.120899489) rotate(NaN,0,0) translate(-642.3011609750001,-337.120899489)"><path fill="black" stroke="none" paint-order="stroke fill markers" d=" M 630.7827483916668 331.36169319733335 L 642.3011609750001 337.120899489 L 630.7827483916668 342.88010578066667 Z"/><g transform="rotate(NaN,0,0)"/></g></g><path fill="LightPink" stroke="black" paint-order="fill stroke markers" d=" M 401.30480528500004 357.854042139 L 642.3011609750001 357.854042139 L 654.7410465650001 370.293927729 L 654.7410465650001 403.466955969 L 401.30480528500004 403.466955969 L 401.30480528500004 357.854042139 M 642.3011609750001 357.854042139 L 642.3011609750001 370.293927729 L 654.7410465650001 370.293927729" stroke-miterlimit="10" stroke-width="1.1518412583333333" stroke-dasharray=""/><g><text fill="black" stroke="none" font-family="sans-serif" font-size="9pt" font-style="normal" font-weight="normal" text-decoration="normal" x="420.6557384250001" y="377.20497527900005" text-anchor="start" dominant-baseline="alphabetic">Netwrok controller sends an HTTP GET </text><text fill="black" stroke="none" font-family="sans-serif" font-size="9pt" font-style="normal" font-weight="normal" text-decoration="normal" x="420.6557384250001" y="391.02707037900007" text-anchor="start" dominant-baseline="alphabetic">request with the requested hall number</text></g><g><g><rect fill="white" stroke="none" x="694.1574489475001" y="424.200098619" width="81.52553478" height="17.96872363"/></g><text fill="black" stroke="none" font-family="sans-serif" font-size="9pt" font-style="normal" font-weight="normal" text-decoration="normal" x="696.2307632125002" y="436.63998420900003" text-anchor="start" dominant-baseline="alphabetic">Get halls data </text></g><g><path fill="none" stroke="black" paint-order="fill stroke markers" d=" M 642.3011609750001 442.168822249 L 825.2355891833336 442.168822249" stroke-miterlimit="10" stroke-width="1.1518412583333333" stroke-dasharray=""/><g transform="translate(827.5392717000002,442.168822249) rotate(NaN,0,0) translate(-827.5392717000002,-442.168822249)"><path fill="black" stroke="none" paint-order="stroke fill markers" d=" M 816.0208591166669 436.40961595733336 L 827.5392717000002 442.168822249 L 816.0208591166669 447.9280285406667 Z"/><g transform="rotate(NaN,0,0)"/></g></g><path fill="LightPink" stroke="black" paint-order="fill stroke markers" d=" M 629.8612753850001 462.90196489900006 L 827.5392717000002 462.90196489900006 L 839.9791572900002 475.3418504890001 L 839.9791572900002 522.336973829 L 629.8612753850001 522.336973829 L 629.8612753850001 462.90196489900006 M 827.5392717000002 462.90196489900006 L 827.5392717000002 475.3418504890001 L 839.9791572900002 475.3418504890001" stroke-miterlimit="10" stroke-width="1.1518412583333333" stroke-dasharray=""/><g><text fill="black" stroke="none" font-family="sans-serif" font-size="9pt" font-style="normal" font-weight="normal" text-decoration="normal" x="649.2122085250002" y="482.25289803900006" text-anchor="start" dominant-baseline="alphabetic">Database searches for the </text><text fill="black" stroke="none" font-family="sans-serif" font-size="9pt" font-style="normal" font-weight="normal" text-decoration="normal" x="649.2122085250002" y="496.07499313900007" text-anchor="start" dominant-baseline="alphabetic">specific hall requested by server</text><text fill="black" stroke="none" font-family="sans-serif" font-size="9pt" font-style="normal" font-weight="normal" text-decoration="normal" x="649.2122085250002" y="509.8970882390001" text-anchor="start" dominant-baseline="alphabetic">and returns it</text></g><g><g><rect fill="white" stroke="none" x="701.4933864475001" y="543.070116479" width="66.85365978" height="17.96872363"/></g><text fill="black" stroke="none" font-family="sans-serif" font-size="9pt" font-style="normal" font-weight="normal" text-decoration="normal" x="703.5667007125002" y="555.5100020689999" text-anchor="start" dominant-baseline="alphabetic">Return data</text></g><g><path fill="none" stroke="black" paint-order="fill stroke markers" d=" M 827.5392717000002 561.038840109 L 644.6048434916668 561.038840109" stroke-miterlimit="10" stroke-width="1.1518412583333333" stroke-dasharray="5.52883804"/><g transform="translate(642.3011609750001,561.038840109) rotate(NaN,0,0) translate(-642.3011609750001,-561.038840109)"><path fill="none" stroke="black" paint-order="fill stroke markers" d=" M 653.8195735583334 555.2796338173333 L 643.4530022333335 561.038840109 L 653.8195735583334 566.7980464006667" stroke-miterlimit="10" stroke-width="1.1518412583333333"/><g transform="rotate(NaN,0,0)"/></g></g><g><g><rect fill="white" stroke="none" x="493.6000022850001" y="581.771982759" width="68.84584728" height="17.96872363"/></g><text fill="black" stroke="none" font-family="sans-serif" font-size="9pt" font-style="normal" font-weight="normal" text-decoration="normal" x="495.6733165500001" y="594.2118683489999" text-anchor="start" dominant-baseline="alphabetic">Return Data</text></g><g><path fill="none" stroke="black" paint-order="fill stroke markers" d=" M 642.3011609750001 599.740706389 L 416.0483733916667 599.740706389" stroke-miterlimit="10" stroke-width="1.1518412583333333" stroke-dasharray="5.52883804"/><g transform="translate(413.74469087500006,599.740706389) rotate(NaN,0,0) translate(-413.74469087500006,-599.740706389)"><path fill="none" stroke="black" paint-order="fill stroke markers" d=" M 425.2631034583334 593.9815000973333 L 414.8965321333334 599.740706389 L 425.2631034583334 605.4999126806667" stroke-miterlimit="10" stroke-width="1.1518412583333333"/><g transform="rotate(NaN,0,0)"/></g></g><path fill="LightPink" stroke="black" paint-order="fill stroke markers" d=" M 401.30480528500004 620.473849039 L 642.3011609750001 620.473849039 L 654.7410465650001 632.913734629 L 654.7410465650001 666.086762869 L 401.30480528500004 666.086762869 L 401.30480528500004 620.473849039 M 642.3011609750001 620.473849039 L 642.3011609750001 632.913734629 L 654.7410465650001 632.913734629" stroke-miterlimit="10" stroke-width="1.1518412583333333" stroke-dasharray=""/><g><text fill="black" stroke="none" font-family="sans-serif" font-size="9pt" font-style="normal" font-weight="normal" text-decoration="normal" x="423.6381603000001" y="639.824782179" text-anchor="start" dominant-baseline="alphabetic">Server reads data from database and</text><text fill="black" stroke="none" font-family="sans-serif" font-size="9pt" font-style="normal" font-weight="normal" text-decoration="normal" x="423.6381603000001" y="653.6468772789999" text-anchor="start" dominant-baseline="alphabetic">returns the data to client as a JSON file</text></g><g><g><rect fill="white" stroke="none" x="230.84821968500003" y="686.819905519" width="127.539206655" height="17.96872363"/></g><text fill="black" stroke="none" font-family="sans-serif" font-size="9pt" font-style="normal" font-weight="normal" text-decoration="normal" x="232.92153395000003" y="699.2597911089999" text-anchor="start" dominant-baseline="alphabetic">Return Structured Data</text></g><g><path fill="none" stroke="black" paint-order="fill stroke markers" d=" M 413.74469087500006 704.788629149 L 177.7946376666667 704.788629149" stroke-miterlimit="10" stroke-width="1.1518412583333333" stroke-dasharray="5.52883804"/><g transform="translate(175.49095515000002,704.788629149) rotate(NaN,0,0) translate(-175.49095515000002,-704.788629149)"><path fill="none" stroke="black" paint-order="fill stroke markers" d=" M 187.00936773333333 699.0294228573333 L 176.64279640833334 704.788629149 L 187.00936773333333 710.5478354406667" stroke-miterlimit="10" stroke-width="1.1518412583333333"/><g transform="rotate(NaN,0,0)"/></g></g><path fill="LightPink" stroke="black" paint-order="fill stroke markers" d=" M 163.05106956000003 725.521771799 L 413.74469087500006 725.521771799 L 426.1845764650001 737.961657389 L 426.1845764650001 771.134685629 L 163.05106956000003 771.134685629 L 163.05106956000003 725.521771799 M 413.74469087500006 725.521771799 L 413.74469087500006 737.961657389 L 426.1845764650001 737.961657389" stroke-miterlimit="10" stroke-width="1.1518412583333333" stroke-dasharray=""/><g><text fill="black" stroke="none" font-family="sans-serif" font-size="9pt" font-style="normal" font-weight="normal" text-decoration="normal" x="193.24184645000003" y="744.872704939" text-anchor="start" dominant-baseline="alphabetic">Network Controller parses the json file</text><text fill="black" stroke="none" font-family="sans-serif" font-size="9pt" font-style="normal" font-weight="normal" text-decoration="normal" x="193.24184645000003" y="758.6948000389999" text-anchor="start" dominant-baseline="alphabetic">and returns it as raw data for App</text></g></g><g/><g/><g/><g/><g/></g></svg>